<?xml version="1.0" standalone="no"?>
<!DOCTYPE svg PUBLIC "-//W3C//DTD SVG 20010904//EN"
 "http://www.w3.org/TR/2001/REC-SVG-20010904/DTD/svg10.dtd">
<svg version="1.0" xmlns="http://www.w3.org/2000/svg"
 width="216.000000pt" height="220.000000pt" viewBox="0 0 216.000000 220.000000"
 preserveAspectRatio="xMidYMid meet">
<metadata>
Created by potrace 1.16, written by Peter Selinger 2001-2019
</metadata>
<g transform="translate(0.000000,220.000000) scale(0.100000,-0.100000)"
fill="#000000" stroke="none">
<path d="M0 1100 l0 -1100 1080 0 1080 0 0 1100 0 1100 -1080 0 -1080 0 0
-1100z m1024 671 l89 -60 88 60 c49 32 90 59 93 59 2 0 87 -49 188 -110 l183
-110 5 -121 5 -122 88 -50 87 -49 0 -188 0 -187 -90 -59 -89 -59 -3 -109 -3
-110 -187 -109 -186 -108 -94 47 -93 47 -90 -48 -90 -48 -185 109 -185 109 -5
109 -5 110 -88 60 -87 60 0 191 0 190 90 48 89 48 3 121 3 122 185 108 c102
59 187 108 190 108 3 0 45 -27 94 -59z"/>
<path d="M843 1752 l-83 -47 0 -112 c0 -94 -3 -113 -15 -113 -12 0 -15 18 -15
100 0 55 -2 100 -4 100 -2 0 -36 -18 -75 -41 l-71 -41 0 -114 0 -114 85 -42
85 -42 80 39 80 39 0 88 c0 72 3 88 15 88 12 0 15 -17 15 -95 l0 -95 -90 -45
-90 -45 0 -83 0 -83 88 -60 87 -59 3 -72 c2 -40 5 -73 8 -73 3 0 38 18 79 41
l75 41 0 82 0 82 -81 39 c-83 41 -115 65 -85 65 8 0 54 -19 101 -42 l85 -42 0
-213 0 -213 80 0 c45 0 80 4 80 10 0 20 45 50 75 50 35 0 60 -22 70 -61 5 -20
0 -33 -18 -54 -32 -38 -82 -39 -111 -2 -20 25 -27 27 -99 27 l-77 0 0 -93 0
-93 86 -42 86 -43 174 102 174 101 0 108 0 107 80 53 c44 29 80 55 80 59 0 4
-33 23 -72 42 -69 34 -74 35 -100 20 -52 -30 -119 24 -104 85 6 24 51 54 81
54 24 0 65 -46 65 -72 0 -19 14 -30 75 -61 l75 -37 0 160 0 159 -77 45 c-43
24 -84 49 -90 56 -8 6 -13 34 -13 65 l0 55 -43 0 c-36 0 -47 -5 -65 -30 -51
-69 -153 -12 -127 70 17 52 110 55 133 5 10 -21 18 -25 57 -25 l46 0 -3 52 -3
52 -172 103 -172 104 -86 -57 -85 -57 0 -173 0 -173 88 -59 c83 -56 88 -58
113 -44 38 22 77 9 95 -33 19 -45 3 -80 -42 -95 -50 -17 -94 15 -94 68 0 13
-28 38 -90 78 l-90 59 0 185 0 185 -62 40 c-33 22 -73 48 -87 57 -25 16 -28
16 -108 -30z"/>
<path d="M473 1302 l-73 -36 0 -83 0 -83 73 45 c48 29 75 41 82 34 7 -7 5 -13
-5 -19 -8 -5 -44 -26 -80 -47 l-65 -38 -3 -85 -2 -85 76 -50 c42 -27 81 -51
85 -53 4 -2 42 20 84 48 85 57 105 67 105 51 0 -6 -38 -36 -85 -67 l-85 -57 0
-102 0 -101 77 -45 c42 -24 80 -45 85 -47 4 -2 41 17 82 41 68 42 86 47 86 26
0 -4 -29 -24 -65 -44 -36 -20 -65 -39 -65 -43 0 -4 34 -26 76 -50 l75 -43 84
46 85 47 0 209 0 209 -37 -19 c-21 -10 -105 -56 -187 -100 -93 -51 -153 -78
-159 -72 -9 9 8 20 143 93 l50 28 0 73 0 74 -83 55 -84 56 -84 -58 c-77 -53
-99 -62 -99 -41 0 4 38 33 85 65 l85 56 0 85 0 85 -80 40 c-44 22 -85 40 -92
39 -7 0 -46 -17 -85 -37z"/>
</g>
</svg>
